<mxfile host="app.diagrams.net" modified="2023-10-04T13:45:24.172Z" agent="Mozilla/5.0 (Windows NT 10.0; Win64; x64) AppleWebKit/537.36 (KHTML, like Gecko) Chrome/117.0.0.0 Safari/537.36" etag="tNZDfeAsPS5ixGAMRREA" version="21.8.2" type="github">
  <diagram name="Page-1" id="huFkqurQqboHGZ-WaJA4">
    <mxGraphModel dx="1434" dy="750" grid="1" gridSize="10" guides="1" tooltips="1" connect="1" arrows="1" fold="1" page="1" pageScale="1" pageWidth="850" pageHeight="1100" math="0" shadow="0">
      <root>
        <mxCell id="0" />
        <mxCell id="1" parent="0" />
        <mxCell id="kCUjwhDeDBKvriY48EGF-1" value="" style="ellipse;whiteSpace=wrap;html=1;aspect=fixed;strokeColor=#FF8000;strokeWidth=2;verticalAlign=top;" vertex="1" parent="1">
          <mxGeometry x="120" y="80" width="610" height="610" as="geometry" />
        </mxCell>
        <mxCell id="kCUjwhDeDBKvriY48EGF-2" value="" style="ellipse;whiteSpace=wrap;html=1;aspect=fixed;strokeColor=#FF8000;strokeWidth=2;verticalAlign=top;" vertex="1" parent="1">
          <mxGeometry x="175" y="135" width="500" height="500" as="geometry" />
        </mxCell>
        <mxCell id="kCUjwhDeDBKvriY48EGF-3" value="" style="ellipse;whiteSpace=wrap;html=1;aspect=fixed;strokeWidth=2;strokeColor=#FF8000;verticalAlign=top;" vertex="1" parent="1">
          <mxGeometry x="225" y="190" width="400" height="400" as="geometry" />
        </mxCell>
        <mxCell id="kCUjwhDeDBKvriY48EGF-4" value="" style="ellipse;whiteSpace=wrap;html=1;aspect=fixed;strokeWidth=2;strokeColor=#FF8000;verticalAlign=top;" vertex="1" parent="1">
          <mxGeometry x="286" y="260" width="278" height="278" as="geometry" />
        </mxCell>
        <mxCell id="kCUjwhDeDBKvriY48EGF-7" value="Tools" style="text;html=1;align=center;verticalAlign=middle;resizable=0;points=[];autosize=1;strokeColor=none;fillColor=none;fontStyle=1;strokeWidth=2;" vertex="1" parent="1">
          <mxGeometry x="150" y="158" width="50" height="30" as="geometry" />
        </mxCell>
        <mxCell id="kCUjwhDeDBKvriY48EGF-10" value="Techniques" style="text;html=1;align=center;verticalAlign=middle;resizable=0;points=[];autosize=1;strokeColor=none;fillColor=none;fontStyle=1;strokeWidth=2;" vertex="1" parent="1">
          <mxGeometry x="640" y="158" width="90" height="30" as="geometry" />
        </mxCell>
        <mxCell id="kCUjwhDeDBKvriY48EGF-11" value="Languages &amp;amp; Frameworks" style="text;html=1;align=center;verticalAlign=middle;resizable=0;points=[];autosize=1;strokeColor=none;fillColor=none;fontStyle=1;strokeWidth=2;" vertex="1" parent="1">
          <mxGeometry x="580" y="640" width="170" height="30" as="geometry" />
        </mxCell>
        <mxCell id="kCUjwhDeDBKvriY48EGF-12" value="Platforms" style="text;html=1;align=center;verticalAlign=middle;resizable=0;points=[];autosize=1;strokeColor=none;fillColor=none;fontStyle=1;strokeWidth=2;" vertex="1" parent="1">
          <mxGeometry x="160" y="640" width="80" height="30" as="geometry" />
        </mxCell>
        <mxCell id="kCUjwhDeDBKvriY48EGF-15" value="" style="rounded=1;whiteSpace=wrap;html=1;strokeColor=#FF8000;fillColor=#FFFFFF;strokeWidth=2;" vertex="1" parent="1">
          <mxGeometry x="120" y="380" width="610" height="30" as="geometry" />
        </mxCell>
        <mxCell id="kCUjwhDeDBKvriY48EGF-16" value="" style="rounded=1;whiteSpace=wrap;html=1;rotation=-90;strokeColor=#FF8000;fillColor=#FFFFFF;strokeWidth=2;" vertex="1" parent="1">
          <mxGeometry x="120" y="370" width="610" height="30" as="geometry" />
        </mxCell>
        <mxCell id="kCUjwhDeDBKvriY48EGF-17" value="Retire" style="text;html=1;align=center;verticalAlign=middle;resizable=0;points=[];autosize=1;strokeColor=none;fillColor=none;" vertex="1" parent="1">
          <mxGeometry x="115" y="380" width="60" height="30" as="geometry" />
        </mxCell>
        <mxCell id="kCUjwhDeDBKvriY48EGF-18" value="Hold" style="text;html=1;align=center;verticalAlign=middle;resizable=0;points=[];autosize=1;strokeColor=none;fillColor=none;" vertex="1" parent="1">
          <mxGeometry x="175" y="380" width="50" height="30" as="geometry" />
        </mxCell>
        <mxCell id="kCUjwhDeDBKvriY48EGF-19" value="Hold" style="text;html=1;align=center;verticalAlign=middle;resizable=0;points=[];autosize=1;strokeColor=none;fillColor=none;" vertex="1" parent="1">
          <mxGeometry x="625" y="380" width="50" height="30" as="geometry" />
        </mxCell>
        <mxCell id="kCUjwhDeDBKvriY48EGF-20" value="Retire" style="text;html=1;align=center;verticalAlign=middle;resizable=0;points=[];autosize=1;strokeColor=none;fillColor=none;" vertex="1" parent="1">
          <mxGeometry x="675" y="380" width="60" height="30" as="geometry" />
        </mxCell>
        <mxCell id="kCUjwhDeDBKvriY48EGF-21" value="Aspire" style="text;html=1;align=center;verticalAlign=middle;resizable=0;points=[];autosize=1;strokeColor=none;fillColor=none;" vertex="1" parent="1">
          <mxGeometry x="564" y="380" width="60" height="30" as="geometry" />
        </mxCell>
        <mxCell id="kCUjwhDeDBKvriY48EGF-22" value="Aspire" style="text;html=1;align=center;verticalAlign=middle;resizable=0;points=[];autosize=1;strokeColor=none;fillColor=none;" vertex="1" parent="1">
          <mxGeometry x="226" y="380" width="60" height="30" as="geometry" />
        </mxCell>
        <mxCell id="kCUjwhDeDBKvriY48EGF-23" value="Adopt" style="text;html=1;align=center;verticalAlign=middle;resizable=0;points=[];autosize=1;strokeColor=none;fillColor=none;" vertex="1" parent="1">
          <mxGeometry x="325" y="380" width="50" height="30" as="geometry" />
        </mxCell>
        <mxCell id="kCUjwhDeDBKvriY48EGF-24" value="Adopt" style="text;html=1;align=center;verticalAlign=middle;resizable=0;points=[];autosize=1;strokeColor=none;fillColor=none;" vertex="1" parent="1">
          <mxGeometry x="470" y="380" width="50" height="30" as="geometry" />
        </mxCell>
        <mxCell id="kCUjwhDeDBKvriY48EGF-27" value="1" style="ellipse;whiteSpace=wrap;html=1;aspect=fixed;fillColor=#FFCCFF;strokeColor=#CC00CC;" vertex="1" parent="1">
          <mxGeometry x="360" y="310" width="30" height="30" as="geometry" />
        </mxCell>
        <mxCell id="kCUjwhDeDBKvriY48EGF-28" value="2" style="ellipse;whiteSpace=wrap;html=1;aspect=fixed;fillColor=#FFCCFF;strokeColor=#CC00CC;" vertex="1" parent="1">
          <mxGeometry x="325" y="440" width="30" height="30" as="geometry" />
        </mxCell>
        <mxCell id="kCUjwhDeDBKvriY48EGF-29" value="3" style="ellipse;whiteSpace=wrap;html=1;aspect=fixed;fillColor=#FFCCFF;strokeColor=#CC00CC;" vertex="1" parent="1">
          <mxGeometry x="520" y="250" width="30" height="30" as="geometry" />
        </mxCell>
        <mxCell id="kCUjwhDeDBKvriY48EGF-30" value="4" style="ellipse;whiteSpace=wrap;html=1;aspect=fixed;fillColor=#FFCCFF;strokeColor=#CC00CC;" vertex="1" parent="1">
          <mxGeometry x="520" y="508" width="30" height="30" as="geometry" />
        </mxCell>
        <mxCell id="kCUjwhDeDBKvriY48EGF-31" value="5" style="ellipse;whiteSpace=wrap;html=1;aspect=fixed;fillColor=#FFCCFF;strokeColor=#CC00CC;" vertex="1" parent="1">
          <mxGeometry x="470" y="440" width="30" height="30" as="geometry" />
        </mxCell>
        <mxCell id="kCUjwhDeDBKvriY48EGF-32" value="6" style="ellipse;whiteSpace=wrap;html=1;aspect=fixed;fillColor=#FFCCFF;strokeColor=#CC00CC;" vertex="1" parent="1">
          <mxGeometry x="196" y="440" width="30" height="30" as="geometry" />
        </mxCell>
        <mxCell id="kCUjwhDeDBKvriY48EGF-33" value="7" style="ellipse;whiteSpace=wrap;html=1;aspect=fixed;fillColor=#FFCCFF;strokeColor=#CC00CC;" vertex="1" parent="1">
          <mxGeometry x="375" y="460" width="30" height="30" as="geometry" />
        </mxCell>
        <mxCell id="kCUjwhDeDBKvriY48EGF-34" value="8" style="ellipse;whiteSpace=wrap;html=1;aspect=fixed;fillColor=#FFCCFF;strokeColor=#CC00CC;" vertex="1" parent="1">
          <mxGeometry x="450" y="290" width="30" height="30" as="geometry" />
        </mxCell>
        <mxCell id="kCUjwhDeDBKvriY48EGF-35" value="9" style="ellipse;whiteSpace=wrap;html=1;aspect=fixed;fillColor=#FFCCFF;strokeColor=#CC00CC;" vertex="1" parent="1">
          <mxGeometry x="250" y="150" width="30" height="30" as="geometry" />
        </mxCell>
        <mxCell id="kCUjwhDeDBKvriY48EGF-36" value="10" style="ellipse;whiteSpace=wrap;html=1;aspect=fixed;fillColor=#FFCCFF;strokeColor=#CC00CC;" vertex="1" parent="1">
          <mxGeometry x="250" y="300" width="30" height="30" as="geometry" />
        </mxCell>
        <mxCell id="kCUjwhDeDBKvriY48EGF-37" value="11" style="ellipse;whiteSpace=wrap;html=1;aspect=fixed;fillColor=#FFCCFF;strokeColor=#CC00CC;" vertex="1" parent="1">
          <mxGeometry x="635" y="330" width="30" height="30" as="geometry" />
        </mxCell>
        <mxCell id="kCUjwhDeDBKvriY48EGF-38" value="Computing" style="text;html=1;align=center;verticalAlign=middle;resizable=0;points=[];autosize=1;strokeColor=none;fillColor=none;fontStyle=1;fontSize=20;" vertex="1" parent="1">
          <mxGeometry x="360" y="23" width="130" height="40" as="geometry" />
        </mxCell>
      </root>
    </mxGraphModel>
  </diagram>
</mxfile>
